<?xml version="1.0" encoding="UTF-8"?>
<svg id="Layer_1" data-name="Layer 1" xmlns="http://www.w3.org/2000/svg" xmlns:xlink="http://www.w3.org/1999/xlink" viewBox="0 0 600 150">
  <defs>
    <style>
      .cls-1 {
        fill: url(#linear-gradient-12);
      }

      .cls-1, .cls-2, .cls-3, .cls-4, .cls-5, .cls-6, .cls-7, .cls-8, .cls-9, .cls-10, .cls-11, .cls-12, .cls-13, .cls-14, .cls-15, .cls-16, .cls-17, .cls-18, .cls-19, .cls-20, .cls-21, .cls-22, .cls-23 {
        stroke-width: 0px;
      }

      .cls-2 {
        fill: url(#linear-gradient-17);
      }

      .cls-3 {
        fill: url(#linear-gradient-19);
      }

      .cls-4 {
        fill: url(#linear-gradient);
      }

      .cls-5 {
        fill: url(#linear-gradient-21);
      }

      .cls-6 {
        fill: url(#linear-gradient-6);
      }

      .cls-7 {
        fill: url(#linear-gradient-15);
      }

      .cls-8 {
        fill: url(#linear-gradient-11);
      }

      .cls-9 {
        fill: url(#linear-gradient-5);
      }

      .cls-10 {
        fill: url(#linear-gradient-13);
      }

      .cls-11 {
        fill: url(#linear-gradient-16);
      }

      .cls-12 {
        fill: url(#linear-gradient-22);
      }

      .cls-13 {
        fill: url(#linear-gradient-20);
      }

      .cls-14 {
        fill: url(#linear-gradient-14);
      }

      .cls-15 {
        fill: url(#linear-gradient-2);
      }

      .cls-16 {
        fill: url(#linear-gradient-7);
      }

      .cls-17 {
        fill: url(#linear-gradient-3);
      }

      .cls-18 {
        fill: url(#linear-gradient-9);
      }

      .cls-19 {
        fill: url(#linear-gradient-8);
      }

      .cls-20 {
        fill: url(#linear-gradient-18);
      }

      .cls-21 {
        fill: #fff;
      }

      .cls-22 {
        fill: url(#linear-gradient-10);
      }

      .cls-23 {
        fill: url(#linear-gradient-4);
      }
    </style>
    <linearGradient id="linear-gradient" x1="202.07" y1="63.74" x2="584.63" y2="63.74" gradientUnits="userSpaceOnUse">
      <stop offset="0" stop-color="#d79617"/>
      <stop offset="0" stop-color="#b46a11"/>
      <stop offset=".32" stop-color="#d68d15"/>
      <stop offset=".68" stop-color="#e7ac18"/>
      <stop offset="1" stop-color="#b46a11"/>
    </linearGradient>
    <linearGradient id="linear-gradient-2" x1="56.33" y1="91.94" x2="60.17" y2="91.94" xlink:href="#linear-gradient"/>
    <linearGradient id="linear-gradient-3" x1="61.37" y1="89.03" x2="65.21" y2="89.03" xlink:href="#linear-gradient"/>
    <linearGradient id="linear-gradient-4" x1="66.41" y1="85.94" x2="70.91" y2="85.94" xlink:href="#linear-gradient"/>
    <linearGradient id="linear-gradient-5" x1="99.02" y1="60.84" x2="103.51" y2="60.84" xlink:href="#linear-gradient"/>
    <linearGradient id="linear-gradient-6" x1="72.92" y1="81.76" x2="89.16" y2="81.76" xlink:href="#linear-gradient"/>
    <linearGradient id="linear-gradient-7" x1="82.78" y1="63.2" x2="99.02" y2="63.2" xlink:href="#linear-gradient"/>
    <linearGradient id="linear-gradient-8" x1="125.52" y1="92.63" x2="141.76" y2="92.63" xlink:href="#linear-gradient"/>
    <linearGradient id="linear-gradient-9" x1="105.69" y1="69.34" x2="132.14" y2="69.34" xlink:href="#linear-gradient"/>
    <linearGradient id="linear-gradient-10" x1="52.99" y1="50.71" x2="62.22" y2="50.71" xlink:href="#linear-gradient"/>
    <linearGradient id="linear-gradient-11" x1="62.98" y1="43.28" x2="69.13" y2="43.28" xlink:href="#linear-gradient"/>
    <linearGradient id="linear-gradient-12" x1="57.09" y1="39.31" x2="61.2" y2="39.31" xlink:href="#linear-gradient"/>
    <linearGradient id="linear-gradient-13" x1="131.07" y1="32.38" x2="136.2" y2="32.38" xlink:href="#linear-gradient"/>
    <linearGradient id="linear-gradient-14" x1="155.18" y1="90.07" x2="161.33" y2="90.07" xlink:href="#linear-gradient"/>
    <linearGradient id="linear-gradient-15" x1="165.95" y1="95.96" x2="175.18" y2="95.96" xlink:href="#linear-gradient"/>
    <linearGradient id="linear-gradient-16" x1="148" y1="109.8" x2="163.38" y2="109.8" xlink:href="#linear-gradient"/>
    <linearGradient id="linear-gradient-17" x1="46.34" y1="125.25" x2="156.91" y2="125.25" xlink:href="#linear-gradient"/>
    <linearGradient id="linear-gradient-18" x1="93.02" y1="124.58" x2="100.23" y2="124.58" xlink:href="#linear-gradient"/>
    <linearGradient id="linear-gradient-19" x1="103.23" y1="124.58" x2="110.43" y2="124.58" xlink:href="#linear-gradient"/>
    <linearGradient id="linear-gradient-20" x1="93.02" y1="134.77" x2="100.23" y2="134.77" xlink:href="#linear-gradient"/>
    <linearGradient id="linear-gradient-21" x1="103.23" y1="134.77" x2="110.43" y2="134.77" xlink:href="#linear-gradient"/>
    <linearGradient id="linear-gradient-22" x1="12.27" y1="65.24" x2="192.53" y2="65.24" xlink:href="#linear-gradient"/>
  </defs>
  <g>
    <path class="cls-21" d="M209.09,104.18v4.95h-1.1v-14.32h6.28c6.22,0,6.22,9.37,0,9.37h-5.18ZM209.09,95.83v7.35h5.18c4.77,0,4.77-7.35,0-7.35h-5.18Z"/>
    <path class="cls-21" d="M237.25,101.99c-.02,3.77-2.41,7.39-7.22,7.39s-7.22-3.64-7.22-7.43,2.39-7.37,7.22-7.37,7.24,3.54,7.22,7.41ZM223.89,101.96c.02,3.23,2.07,6.38,6.14,6.38s6.16-3.15,6.16-6.38-2.05-6.36-6.16-6.36-6.16,2.99-6.14,6.36Z"/>
    <path class="cls-21" d="M251.61,97.57c-1.04-1.68-2.72-1.92-4.34-1.94-1.68,0-4.34.61-4.34,2.9,0,1.82,1.96,2.25,4.38,2.7,2.76.53,5.63,1.02,5.63,4.11-.02,3.23-3.27,4.01-5.67,4.01-2.23,0-4.77-.92-5.87-3.11l.98-.49c.88,1.74,3.13,2.6,4.89,2.6s4.56-.49,4.56-3.03c.02-2.15-2.35-2.62-4.71-3.07-2.62-.51-5.3-1.04-5.3-3.68-.06-3.03,3.09-3.97,5.44-3.97,2.05,0,3.83.33,5.24,2.44l-.9.53Z"/>
    <path class="cls-21" d="M261.39,95.81h-5.18v-.98h11.46v.98h-5.18v13.32h-1.1v-13.32Z"/>
    <path class="cls-21" d="M291.3,107.14c-1.43,1.43-3.33,2.15-5.22,2.15-4.83,0-7.35-3.38-7.37-7.24-.04-3.83,2.46-7.41,7.37-7.41,1.88,0,3.79.72,5.22,2.15l-.76.65c-1.23-1.23-2.84-1.82-4.46-1.82-4.17,0-6.32,2.95-6.3,6.38.04,3.36,2.17,6.26,6.3,6.26,1.62,0,3.25-.61,4.48-1.82l.74.7Z"/>
    <path class="cls-21" d="M309.75,101.99c-.02,3.77-2.41,7.39-7.22,7.39s-7.22-3.64-7.22-7.43,2.39-7.37,7.22-7.37,7.24,3.54,7.22,7.41ZM296.39,101.96c.02,3.23,2.07,6.38,6.14,6.38s6.16-3.15,6.16-6.38-2.05-6.36-6.16-6.36-6.16,2.99-6.14,6.36Z"/>
    <path class="cls-21" d="M314.91,94.8l9.64,11.85v-11.85h1.08v14.32h-.43l-9.66-11.83v11.83h-1.1v-14.32h.47Z"/>
    <path class="cls-21" d="M340.38,97.57c-1.04-1.68-2.72-1.92-4.34-1.94-1.68,0-4.34.61-4.34,2.9,0,1.82,1.96,2.25,4.38,2.7,2.76.53,5.63,1.02,5.63,4.11-.02,3.23-3.27,4.01-5.67,4.01-2.23,0-4.77-.92-5.87-3.11l.98-.49c.88,1.74,3.13,2.6,4.89,2.6s4.56-.49,4.56-3.03c.02-2.15-2.35-2.62-4.71-3.07-2.62-.51-5.3-1.04-5.3-3.68-.06-3.03,3.09-3.97,5.44-3.97,2.05,0,3.83.33,5.24,2.44l-.9.53Z"/>
    <path class="cls-21" d="M350.16,95.81h-5.18v-.98h11.46v.98h-5.18v13.32h-1.1v-13.32Z"/>
    <path class="cls-21" d="M372.01,109.13h-1.45l-4.95-5.42h-3.91v5.42h-1.1v-14.32h6.3c3.11,0,4.69,2.23,4.71,4.46.02,2.33-1.51,4.38-4.65,4.38l5.05,5.48ZM361.7,102.66h5.08c2.5,0,3.6-1.41,3.62-3.42.02-1.68-1.12-3.42-3.5-3.42h-5.2v6.84Z"/>
    <path class="cls-21" d="M387.29,94.8v8.9c0,7.49-10.97,7.51-10.97,0v-8.9h1.08v8.9c0,6.16,8.8,6.14,8.8,0v-8.9h1.08Z"/>
    <path class="cls-21" d="M404.17,107.14c-1.43,1.43-3.33,2.15-5.22,2.15-4.83,0-7.35-3.38-7.37-7.24-.04-3.83,2.46-7.41,7.37-7.41,1.88,0,3.79.72,5.22,2.15l-.76.65c-1.23-1.23-2.84-1.82-4.46-1.82-4.17,0-6.32,2.95-6.3,6.38.04,3.36,2.17,6.26,6.3,6.26,1.62,0,3.25-.61,4.48-1.82l.74.7Z"/>
    <path class="cls-21" d="M412.66,95.81h-5.18v-.98h11.46v.98h-5.18v13.32h-1.1v-13.32Z"/>
    <path class="cls-21" d="M423.09,109.13v-14.32h1.08v14.32h-1.08Z"/>
    <path class="cls-21" d="M443.64,101.99c-.02,3.77-2.41,7.39-7.22,7.39s-7.22-3.64-7.22-7.43,2.39-7.37,7.22-7.37,7.24,3.54,7.22,7.41ZM430.28,101.96c.02,3.23,2.07,6.38,6.14,6.38s6.16-3.15,6.16-6.38-2.05-6.36-6.16-6.36-6.16,2.99-6.14,6.36Z"/>
    <path class="cls-21" d="M448.79,94.8l9.64,11.85v-11.85h1.08v14.32h-.43l-9.66-11.83v11.83h-1.1v-14.32h.47Z"/>
    <path class="cls-21" d="M484.25,107.14c-1.43,1.43-3.33,2.15-5.22,2.15-4.83,0-7.35-3.38-7.37-7.24-.04-3.83,2.46-7.41,7.37-7.41,1.88,0,3.79.72,5.22,2.15l-.76.65c-1.23-1.23-2.84-1.82-4.46-1.82-4.17,0-6.32,2.95-6.3,6.38.04,3.36,2.17,6.26,6.3,6.26,1.62,0,3.25-.61,4.48-1.82l.74.7Z"/>
    <path class="cls-21" d="M489.77,94.8v13.28h8.06v1.04h-9.17v-14.32h1.1Z"/>
    <path class="cls-21" d="M503.05,101.41h8.39v1h-8.39v5.65h9.04v1.06h-10.13v-14.32h9.88v1.04h-8.8v5.57Z"/>
    <path class="cls-21" d="M527.97,109.13l-1.58-3.52h-8.55l-1.55,3.52h-1.19l6.43-14.32h1.21l6.42,14.32h-1.19ZM525.96,104.58l-3.85-8.72-3.85,8.72h7.69Z"/>
    <path class="cls-21" d="M533.53,94.8l9.64,11.85v-11.85h1.08v14.32h-.43l-9.66-11.83v11.83h-1.1v-14.32h.47Z"/>
    <path class="cls-21" d="M549.51,109.13v-14.32h1.08v14.32h-1.08Z"/>
    <path class="cls-21" d="M556.28,94.8l9.64,11.85v-11.85h1.08v14.32h-.43l-9.66-11.83v11.83h-1.1v-14.32h.47Z"/>
    <path class="cls-21" d="M583.51,97.44c-1.25-1.23-2.99-1.84-4.6-1.84-4.2,0-6.34,3.07-6.32,6.38,0,3.38,2.15,6.28,6.32,6.28,1.53,0,3.13-.53,4.36-1.66v-4.01h-4.99v-.96h6.04v5.36c-1.49,1.49-3.27,2.31-5.4,2.31-4.87,0-7.39-3.4-7.39-7.31-.02-4.48,3.03-7.41,7.39-7.41,1.88,0,3.79.72,5.24,2.15l-.63.7Z"/>
  </g>
  <g>
    <path class="cls-4" d="M222.45,56.06c-1.04-1.73-3.89-3.37-7.17-3.37-4.23,0-6.26,1.77-6.26,4.02,0,2.63,3.11,3.37,6.74,3.8,6.3.78,12.18,2.42,12.18,9.63,0,6.74-5.96,9.63-12.7,9.63-6.18,0-10.93-1.9-13.17-7.43l4.75-2.46c1.34,3.32,4.84,4.79,8.51,4.79s6.95-1.25,6.95-4.53c0-2.85-2.98-4.02-7-4.45-6.17-.73-11.88-2.38-11.88-9.15,0-6.22,6.13-8.77,11.7-8.81,4.71,0,9.59,1.34,11.88,6l-4.53,2.33Z"/>
    <path class="cls-4" d="M232.38,78.99v-30.23h5.66v30.23h-5.66Z"/>
    <path class="cls-4" d="M252.59,53.94h-9.59v-5.18h24.87v5.18h-9.59v25.05h-5.7v-25.05Z"/>
    <path class="cls-4" d="M293.87,78.99h-22.63v-30.23h22.63v5.53h-16.97v6.95h16.37v5.31h-16.37v6.82h16.97v5.61Z"/>
    <path class="cls-4" d="M325.65,56.06c-1.04-1.73-3.89-3.37-7.17-3.37-4.23,0-6.26,1.77-6.26,4.02,0,2.63,3.11,3.37,6.74,3.8,6.3.78,12.18,2.42,12.18,9.63,0,6.74-5.96,9.63-12.7,9.63-6.18,0-10.93-1.9-13.17-7.43l4.75-2.46c1.34,3.32,4.84,4.79,8.51,4.79s6.95-1.25,6.95-4.53c0-2.85-2.98-4.02-7-4.45-6.17-.73-11.88-2.38-11.88-9.15,0-6.22,6.13-8.77,11.7-8.81,4.71,0,9.59,1.34,11.88,6l-4.53,2.33Z"/>
    <path class="cls-4" d="M356.13,79.03v-12.22h-14.85v12.22h-5.7v-30.23h5.7v12.74h14.85v-12.74h5.66v30.23h-5.66Z"/>
    <path class="cls-4" d="M367.18,78.99v-30.23h5.66v30.23h-5.66Z"/>
    <path class="cls-4" d="M398.05,48.71h5.7v30.27h-3.54v.04l-15.89-20.43v20.38h-5.7v-30.23h4.62l14.81,18.74v-18.78Z"/>
    <path class="cls-4" d="M431.52,78.99h-22.63v-30.23h22.63v5.53h-16.97v6.95h16.37v5.31h-16.37v6.82h16.97v5.61Z"/>
    <path class="cls-4" d="M471.29,75.19c-3.11,3.07-7.12,4.49-11.49,4.49-11.23,0-15.98-7.73-16.02-15.59-.04-7.9,5.1-15.93,16.02-15.93,4.1,0,7.99,1.55,11.1,4.62l-3.8,3.67c-1.99-1.94-4.66-2.85-7.3-2.85-7.3,0-10.45,5.44-10.41,10.49.04,5.01,2.94,10.23,10.41,10.23,2.63,0,5.61-1.08,7.6-3.07l3.89,3.93Z"/>
    <path class="cls-4" d="M479.75,48.76v24.96h15.54v5.27h-21.25v-30.23h5.7Z"/>
    <path class="cls-4" d="M521.85,78.99h-22.63v-30.23h22.63v5.53h-16.97v6.95h16.37v5.31h-16.37v6.82h16.97v5.61Z"/>
    <path class="cls-4" d="M547.71,73.29h-15.8l-2.59,5.7h-6.17l13.56-30.23h6.22l13.56,30.23h-6.22l-2.55-5.7ZM539.81,55.11l-5.61,12.87h11.23l-5.61-12.87Z"/>
    <path class="cls-4" d="M578.93,48.71h5.7v30.27h-3.54v.04l-15.89-20.43v20.38h-5.7v-30.23h4.62l14.81,18.74v-18.78Z"/>
  </g>
  <g>
    <polygon class="cls-15" points="60.17 119.86 60.17 61.82 56.33 64.03 56.33 122.07 60.17 119.86"/>
    <polygon class="cls-17" points="65.21 116.94 65.21 58.9 61.63 60.97 61.37 61.12 61.37 119.17 65.21 116.94"/>
    <polygon class="cls-23" points="70.91 113.66 70.91 55.62 66.41 58.21 66.41 116.25 70.91 113.66"/>
    <polygon class="cls-9" points="99.02 29.55 99.02 92.14 103.51 94.73 103.51 26.96 99.02 29.55"/>
    <polygon class="cls-6" points="89.16 103.13 89.16 60.39 72.92 51.02 72.92 112.5 89.16 103.13"/>
    <polygon class="cls-16" points="82.78 38.92 82.78 53.82 90.9 58.7 90.9 96.84 99.02 92.15 99.02 92.14 99.02 29.55 82.78 38.92"/>
    <polygon class="cls-19" points="141.76 76.45 141.76 118.18 125.52 108.8 125.52 67.08 141.76 76.45"/>
    <polygon class="cls-18" points="132.14 47.38 132.14 68.18 126.81 64.33 115.28 68.88 115.28 102.9 111.36 100.63 111.36 39.8 110.64 40.3 105.69 43.16 105.69 39.45 112.05 35.78 112.61 36.1 112.62 36.11 115.26 37.64 115.26 37.64 132.04 47.33 132.14 47.38"/>
    <path class="cls-22" d="M57.61,55.32h0c0-2.55-2.07-4.62-4.62-4.62h0c2.55,0,4.62-2.07,4.62-4.62h0c0,2.55,2.07,4.62,4.62,4.62h0c-2.55,0-4.62,2.07-4.62,4.62Z"/>
    <rect class="cls-8" x="62.98" y="40.21" width="6.16" height="6.16" rx="3.08" ry="3.08"/>
    <rect class="cls-1" x="57.09" y="37.26" width="4.1" height="4.1" rx="2.05" ry="2.05"/>
    <rect class="cls-10" x="131.07" y="29.82" width="5.13" height="5.13" rx="2.56" ry="2.56"/>
    <rect class="cls-14" x="155.18" y="86.99" width="6.16" height="6.16" rx="3.08" ry="3.08"/>
    <path class="cls-7" d="M170.57,100.58h0c0-2.55-2.07-4.62-4.62-4.62h0c2.55,0,4.62-2.07,4.62-4.62h0c0,2.55,2.07,4.62,4.62,4.62h0c-2.55,0-4.62,2.07-4.62,4.62Z"/>
    <path class="cls-11" d="M155.69,117.49h0c0-4.25-3.44-7.69-7.69-7.69h0c4.25,0,7.69-3.44,7.69-7.69h0c0,4.25,3.44,7.69,7.69,7.69h0c-4.25,0-7.69,3.44-7.69,7.69Z"/>
    <polygon class="cls-2" points="156.91 138 156.91 144.42 101.63 112.5 46.34 144.42 46.34 138 101.63 106.08 156.91 138"/>
    <rect class="cls-20" x="93.02" y="120.98" width="7.2" height="7.2"/>
    <rect class="cls-3" x="103.23" y="120.98" width="7.2" height="7.2"/>
    <rect class="cls-13" x="93.02" y="131.17" width="7.2" height="7.2"/>
    <rect class="cls-5" x="103.23" y="131.17" width="7.2" height="7.2"/>
    <path class="cls-12" d="M189.09,120.45c2.24-7.86,3.44-16.16,3.44-24.73,0-49.78-40.35-90.13-90.13-90.13S12.27,45.94,12.27,95.71c0,8.44,1.16,16.6,3.33,24.35l9.31,4.44c-3.33-8.97-5.15-18.67-5.15-28.8C19.76,50.07,56.76,13.07,102.4,13.07s82.64,37,82.64,82.64c0,10.28-1.88,20.12-5.3,29.19l9.36-4.46Z"/>
  </g>
</svg>