<?xml version="1.0" encoding="UTF-8"?>
<svg id="Layer_1" data-name="Layer 1" xmlns="http://www.w3.org/2000/svg" viewBox="0 0 60 60">
  <defs>
    <style>
      .cls-1 {
        fill: gold;
        fill-rule: evenodd;
        stroke-width: 0px;
      }
    </style>
  </defs>
  <path class="cls-1" d="M48,11.06c3.36.62,5.64,1.74,7.8,3.84,2.83,2.74,4.2,6,4.2,9.93,0,3.6-1.26,6.76-3.76,9.39-2.28,2.4-4.77,3.72-8.09,4.26l-.83.14-5.56,5.53c-4.84,4.83-5.64,5.56-6.2,5.71-1.31.35-2.71-.47-3.07-1.79-.12-.46-.16-4.05-.12-12.91.05-10.55.09-12.4.3-13.26,1.27-5.22,5.08-9.18,10.12-10.5,1.13-.3,4.31-.51,5.2-.35ZM16.19,11.18c4.39.84,8.02,3.56,9.94,7.46,1.13,2.28,1.4,3.49,1.4,6.15s-.28,3.87-1.4,6.15c-1.95,3.96-5.62,6.68-10.04,7.45l-1.29.23-5.55,5.53c-4.85,4.84-5.63,5.55-6.19,5.7-.92.24-1.7,0-2.37-.75-.3-.33-.58-.82-.63-1.1-.05-.28-.07-6.11-.04-12.96.06-14.24-.02-13.39,1.47-16.41,1.74-3.52,5.1-6.25,8.9-7.23,1.57-.4,4.32-.51,5.8-.23ZM44.32,16.15c-1.3.27-3.15,1.24-4.1,2.15-1.07,1.03-2,2.46-2.44,3.75-.33.98-.34,1.16-.38,10.19l-.05,9.19,3.77-3.74c4.04-4.01,4.13-4.08,5.67-4.08,3.3,0,6.8-2.76,7.92-6.23.44-1.38.44-3.79,0-5.17-.93-2.89-3.37-5.23-6.25-5.99-1.01-.27-3.03-.3-4.13-.07ZM11.62,16.22c-2.32.6-4.53,2.33-5.6,4.39-1.04,2.01-1.03,1.92-1.03,11.87v8.94l3.76-3.74c4-3.98,4.12-4.07,5.58-4.08,2.73-.01,5.91-2.05,7.25-4.63,2.63-5.07.04-11.13-5.42-12.71-1.18-.34-3.31-.36-4.54-.04Z"/>
</svg>