<?xml version="1.0" encoding="UTF-8"?>
<svg id="Layer_1" data-name="Layer 1" xmlns="http://www.w3.org/2000/svg" viewBox="0 0 72 72">
  <defs>
    <style>
      .cls-1 {
        stroke-width: 0px;
      }
    </style>
  </defs>
  <path class="cls-1" d="M41.25,52.29c-.93-.13-1.01.37-1.01,1.05.02,5.89.01,11.78,0,17.67,0,.33-.13.91-.28.93-.56.1-1.17.07-1.73-.05-.12-.02-.18-.6-.18-.91-.01-5.52,0-11.05,0-16.57,0-.45.06-.91-.03-1.34-.05-.23-.36-.56-.57-.58-.95-.06-1.91-.01-2.86-.03-.49-.01-.64.23-.62.67.01.45,0,.9,0,1.35,0,5.47,0,10.94-.01,16.41,0,.36-.08,1.01-.24,1.04-.55.12-1.16.09-1.73,0-.12-.02-.22-.53-.22-.81-.02-2.58-.01-5.16-.01-7.74,0-3.31,0-6.62,0-9.93,0-.52.05-1.02-.72-1.05-.13,0-.34-.51-.34-.79-.03-2.33-.01-4.65-.02-6.98,0-1.54.15-1.37-1.42-1.37-9.2,0-18.4,0-27.59-.01-.41,0-1.13-.08-1.18-.27-.15-.57-.09-1.21-.02-1.82.01-.11.41-.24.63-.24.84-.03,1.68-.03,2.52-.01.46,0,.66-.18.65-.65-.02-1.04-.02-2.08,0-3.11.01-.53-.22-.68-.71-.67-.81.02-1.63-.02-2.44,0-.53.02-.79-.17-.75-.73.02-.25.02-.51,0-.76-.04-.54.17-.76.72-.74.84.03,1.68,0,2.52.01.47.01.65-.17.65-.64-.02-1.07-.03-2.13,0-3.2.01-.53-.22-.67-.71-.66-.81.02-1.63-.02-2.44.01-.53.02-.8-.15-.75-.71.02-.22.02-.45,0-.67-.08-.66.2-.9.86-.86.81.05,1.63,0,2.44.01.43,0,.6-.17.59-.6-.02-1.07-.02-2.13,0-3.2,0-.49-.25-.63-.68-.62-.84,0-1.68-.01-2.52,0-.49,0-.68-.19-.7-.7-.06-1.66-.08-1.66,1.59-1.66q2.31,0,2.31-2.34,0-1.97-1.99-1.97c-.11,0-.22,0-.34,0-1.7-.04-1.54.35-1.57-1.66,0-.54.17-.76.73-.74.84.03,1.68,0,2.52.01.46.01.66-.15.65-.63-.02-1.04-.02-2.08,0-3.11,0-.43-.16-.61-.6-.6-.87.01-1.74-.02-2.61,0-.51.01-.67-.19-.69-.69-.07-1.67-.09-1.67,1.57-1.67q2.33,0,2.33-2.33,0-2.09-2.05-2.09c-.22,0-.45,0-.67,0-1.16,0-1.11,0-1.18-1.15-.05-.86.25-1.09,1.09-1.08,7.43.03,14.86.01,22.29.03.35,0,.97.12,1.01.27.11.56.08,1.17-.03,1.74-.02.12-.59.18-.91.18-5.27.01-10.54,0-15.82,0-.25,0-.54-.07-.75.02-.24.11-.46.35-.6.59-.09.14-.02.38-.02.58,0,11.83,0,23.67,0,35.5q0,1.23,1.26,1.23c7.21,0,14.41,0,21.62,0q1.18,0,1.18-1.13,0-2.31-2.34-2.33c-3.98-.03-7.96-.08-11.95-.07-.79,0-.99-.26-.99-1.01.02-4.15,0-8.3-.03-12.45,0-.68.16-.92.88-.92,13.18.02,26.36.02,39.54,0,.66,0,.86.2.86.86-.04,4.21-.05,8.41-.04,12.62,0,.71-.25.9-.93.9-4.43,0-8.86.07-13.29.07-.86,0-1.17.26-1.07,1.1.06.47.05.96,0,1.43-.08.76.24.95.96.95,4.07-.03,8.13-.02,12.2,0,.37,0,1.02.09,1.05.23.11.62.07,1.28,0,1.91-.01.1-.54.18-.83.18-3.87.02-7.74.02-11.61.03q-1.75,0-1.75,1.72c0,2.24,0,4.49,0,6.73,0,.16-.04.33-.07.59ZM36.01,25.36c-5.77,0-11.55,0-17.32-.01-.7,0-.99.16-.98.93.04,2.63.04,5.27,0,7.9-.01.76.25.94.97.94,3.39-.03,6.78-.01,10.17-.01q1.78,0,1.82-1.74c0-.2,0-.39.02-.59.18-2.81,2.39-5.06,5.12-5.2,2.52-.13,4.95,1.91,5.4,4.59.11.69.13,1.4.1,2.09-.03.67.22.86.87.86,3.73-.03,7.46-.03,11.18,0,.69,0,.92-.2.91-.9-.03-2.58-.01-5.16-.01-7.74,0-1.11,0-1.11-1.1-1.12-5.72,0-11.44,0-17.15,0ZM38.97,40.9s-.03,0-.04,0c0-2.75,0-5.5,0-8.24,0-1.19-.86-2.28-2.01-2.59-2.18-.58-3.79.65-3.83,3.01-.06,3.1-.05,6.21-.06,9.31,0,2.27.02,4.54-.01,6.81-.01.71.23.92.92.9,1.37-.05,2.75-.06,4.12,0,.77.03.94-.26.94-.97-.03-2.75-.01-5.5-.01-8.24Z"/>
  <path class="cls-1" d="M57.69,43.23c-.55-2.19-.45-2.33,1.61-2.33,1.68,0,3.37-.04,5.05.02.8.02,1.06-.22,1.06-1.04-.02-11.94-.02-23.89,0-35.83,0-.85-.24-1.09-1.09-1.08-10.71.03-21.42.02-32.13.02-1.51,0-3.03-.05-4.54.02-.94.04-.87-.51-.87-1.13,0-.62-.06-1.12.87-1.12,14.38.03,28.77.02,43.15,0,.87,0,.87.46.84,1.06-.03.56.19,1.24-.81,1.18-.81-.05-1.63,0-2.44-.01-.46,0-.66.16-.65.64.02,1.04.02,2.08,0,3.11-.01.53.23.68.71.67.81-.02,1.63.01,2.44,0,.52-.01.76.16.75.72-.02,1.99.12,1.62-1.59,1.63-2.31.02-2.31,0-2.31,2.34q0,2,2.04,2c.22,0,.45,0,.67,0q1.18,0,1.18,1.2t-1.19,1.19c-.7,0-1.4.01-2.1,0-.42-.01-.61.15-.6.59.02,1.04.02,2.07,0,3.11-.01.5.24.62.67.62.84-.01,1.68.01,2.52,0,.5-.01.68.18.7.69.07,1.67.09,1.67-1.58,1.67q-2.32,0-2.32,2.34,0,2.07,2.05,2.07c.22,0,.45,0,.67,0q1.16,0,1.16,1.13,0,1.09-1.11,1.1c-.73,0-1.46.02-2.19,0-.43-.01-.6.17-.59.6.02,1.09.02,2.19,0,3.28,0,.5.23.62.67.61.84-.02,1.68.01,2.52,0,.49-.01.74.16.7.68-.01.17-.02.34,0,.5.11.8-.2,1.12-1.02,1.05-.75-.06-1.51,0-2.27-.01-.42,0-.61.16-.6.59.02,1.07.02,2.13,0,3.2,0,.49.22.64.66.63.81,0,1.63.02,2.44,0,.56-.02.81.17.8.77-.03,1.88.12,1.58-1.56,1.58-3.78,0-7.57,0-11.35-.02-.33,0-.67,0-1.03,0Z"/>
  <path class="cls-1" d="M19.19,18.49c-.74-.03-1.74-.42-2.62-1.23-.33-.31-.88-.58-1.31-.55-2.37.17-4.18-1.99-4.38-3.84-.21-1.93,1.25-3.88,3.32-4.5.4-.12.83-.46,1.03-.82,1.13-2.01,3.32-2.83,5.47-1.96,1.98.8,2.99,3,2.29,5.15-.19.59-.02.99.24,1.48,1.61,2.94-.35,6.32-4.05,6.28ZM19.62,12.44c-1.03,0-1.85.84-1.86,1.88,0,1.11.8,1.89,1.93,1.88,1.07-.01,1.79-.78,1.8-1.91,0-1.07-.78-1.85-1.86-1.85ZM16.43,11.24c-.55-.61-1.31-.81-2.1-.45-.78.35-1.12,1-1.08,1.83.03.84.61,1.54,1.36,1.73.41.1.65.05.81-.44.27-.87.65-1.71,1.02-2.68ZM19.5,10.09c1.41.01,1.8-.44,1.2-1.49-.26-.46-.9-.95-1.4-.98-.58-.04-1.21.37-1.78.66-.1.05-.13.56,0,.7.55.62,1.09,1.34,1.99,1.11Z"/>
  <path class="cls-1" d="M44.45,19c-1.86,0-3.49-1.13-4.07-2.82-.59-1.73-.02-3.52,1.43-4.75.33-.28.59-.81.63-1.24.19-1.9,1.57-3.58,3.36-3.95,1.85-.38,3.82.61,4.68,2.36.8,1.62.36,3.66-1.12,4.94-.52.45-.79.94-.84,1.64-.14,2.09-2.02,3.81-4.08,3.82ZM42.49,14.78c0,1.07.85,1.95,1.87,1.94,1.06-.01,1.81-.78,1.83-1.88.01-1.13-.69-1.89-1.76-1.9-1.15-.01-1.93.73-1.93,1.83ZM47.77,11.95c.11-.12.32-.3.48-.52.45-.64.41-1.32.06-1.98-.36-.68-.98-.96-1.74-.92-.77.05-1.31.43-1.62,1.13-.18.41-.22.79.31,1.04.8.37,1.58.78,2.5,1.25Z"/>
  <path class="cls-1" d="M51.99,59.4c-3.11,0-5.64-2.48-5.65-5.56-.02-3.19,2.51-5.77,5.65-5.78,3.11-.01,5.76,2.64,5.73,5.73-.03,3.11-2.58,5.61-5.73,5.61ZM52.02,50.39c-1.91,0-3.41,1.49-3.41,3.4,0,1.82,1.56,3.37,3.38,3.37,1.87,0,3.42-1.55,3.41-3.43-.01-1.86-1.5-3.34-3.38-3.34Z"/>
  <path class="cls-1" d="M26.85,51.3c.15,2.46-2.18,4.25-4.2,4.21-2.36-.06-4.17-1.93-4.13-4.3.04-2.28,1.99-4.18,4.22-4.14,2.28.04,4.15,1.98,4.11,4.23ZM22.73,49.43c-1.07-.01-1.93.83-1.94,1.89,0,1.03.8,1.82,1.88,1.84,1.07.02,1.93-.81,1.94-1.89,0-1.01-.84-1.84-1.88-1.85Z"/>
  <path class="cls-1" d="M17.21,55.82c1.76.02,3.23,1.46,3.24,3.2.01,1.68-1.53,3.21-3.23,3.21-1.8,0-3.22-1.46-3.19-3.29.02-1.7,1.49-3.14,3.19-3.12ZM16.22,59.18c.31.24.59.61.94.68.55.1.89-.3.91-.85.03-.56-.33-.8-.85-.82-.55-.02-.83.25-1,.99Z"/>
  <path class="cls-1" d="M56.52,12.42c1.75-.01,3.27,1.43,3.3,3.13.03,1.73-1.5,3.27-3.26,3.27-1.73,0-3.13-1.41-3.15-3.15-.02-1.83,1.33-3.24,3.12-3.25ZM56.37,16.6c.13,0,.26,0,.39,0,.23-.34.68-.72.63-1.01-.06-.35-.55-.63-.86-.93-.29.33-.73.63-.8,1-.05.27.4.63.63.95Z"/>
  <path class="cls-1" d="M28.65,8.52c0-1.77,1.4-3.18,3.13-3.18,1.78,0,3.25,1.43,3.27,3.17.02,1.74-1.45,3.22-3.21,3.23-1.75,0-3.2-1.46-3.19-3.23ZM31.67,7.56c-.25.33-.7.67-.68.99.02.32.46.8.79.86.5.1.89-.28.9-.86,0-.53-.26-.84-1.02-.99Z"/>
  <path class="cls-1" d="M34.38,14.26c1.97,0,3.21,1.27,3.21,3.3,0,1.6-1.51,3.06-3.18,3.06-1.71,0-3.19-1.46-3.2-3.14-.02-1.77,1.41-3.22,3.18-3.21ZM35.38,17.64c0-.13.01-.26.02-.39-.32-.26-.62-.66-.98-.73-.54-.11-.85.33-.88.87-.02.57.33.94.86.86.35-.05.65-.4.97-.61Z"/>
  <path class="cls-1" d="M63.63,52.36c-1.76-.04-3.14-1.46-3.12-3.2.02-1.69,1.57-3.26,3.16-3.21,1.87.06,3.26,1.48,3.23,3.29-.03,1.81-1.44,3.16-3.26,3.12ZM64.67,49.4c0-.13,0-.26,0-.4-.3-.24-.58-.62-.92-.68-.54-.1-.98.33-.88.84.06.35.51.77.87.86.24.06.61-.4.93-.62Z"/>
  <path class="cls-1" d="M34.84,37.95q0-1.18,1.21-1.18t1.1,1.21-1.17,1.14-1.14-1.17Z"/>
  <path class="cls-1" d="M37.15,42.05q0,1.2-1.19,1.2t-1.12-1.19,1.15-1.17,1.16,1.15Z"/>
</svg>